v 15.0 16.0 16.0
v 16.0 16.0 16.0
v 16.0 17.0 16.0
v 15.0 17.0 16.0
v 15.0 16.0 17.0
v 16.0 16.0 17.0
v 16.0 17.0 17.0
v 15.0 17.0 17.0
v 15.0 16.0 17.0
v 16.0 16.0 17.0
v 16.0 17.0 17.0
v 15.0 17.0 17.0
v 15.0 16.0 18.0
v 16.0 16.0 18.0
v 16.0 17.0 18.0
v 15.0 17.0 18.0
v 15.0 16.0 18.0
v 16.0 16.0 18.0
v 16.0 17.0 18.0
v 15.0 17.0 18.0
v 15.0 16.0 19.0
v 16.0 16.0 19.0
v 16.0 17.0 19.0
v 15.0 17.0 19.0
v 15.0 17.0 16.0
v 16.0 17.0 16.0
v 16.0 18.0 16.0
v 15.0 18.0 16.0
v 15.0 17.0 17.0
v 16.0 17.0 17.0
v 16.0 18.0 17.0
v 15.0 18.0 17.0
v 15.0 17.0 17.0
v 16.0 17.0 17.0
v 16.0 18.0 17.0
v 15.0 18.0 17.0
v 15.0 17.0 18.0
v 16.0 17.0 18.0
v 16.0 18.0 18.0
v 15.0 18.0 18.0
v 15.0 17.0 18.0
v 16.0 17.0 18.0
v 16.0 18.0 18.0
v 15.0 18.0 18.0
v 15.0 17.0 19.0
v 16.0 17.0 19.0
v 16.0 18.0 19.0
v 15.0 18.0 19.0
v 15.0 18.0 16.0
v 16.0 18.0 16.0
v 16.0 19.0 16.0
v 15.0 19.0 16.0
v 15.0 18.0 17.0
v 16.0 18.0 17.0
v 16.0 19.0 17.0
v 15.0 19.0 17.0
v 15.0 18.0 17.0
v 16.0 18.0 17.0
v 16.0 19.0 17.0
v 15.0 19.0 17.0
v 15.0 18.0 18.0
v 16.0 18.0 18.0
v 16.0 19.0 18.0
v 15.0 19.0 18.0
v 15.0 18.0 18.0
v 16.0 18.0 18.0
v 16.0 19.0 18.0
v 15.0 19.0 18.0
v 15.0 18.0 19.0
v 16.0 18.0 19.0
v 16.0 19.0 19.0
v 15.0 19.0 19.0
f 1 2 3 4
f 5 6 7 8
f 1 2 6 5
f 3 4 8 7
f 1 4 8 5
f 2 3 7 6
f 9 10 11 12
f 13 14 15 16
f 9 10 14 13
f 11 12 16 15
f 9 12 16 13
f 10 11 15 14
f 17 18 19 20
f 21 22 23 24
f 17 18 22 21
f 19 20 24 23
f 17 20 24 21
f 18 19 23 22
f 25 26 27 28
f 29 30 31 32
f 25 26 30 29
f 27 28 32 31
f 25 28 32 29
f 26 27 31 30
f 33 34 35 36
f 37 38 39 40
f 33 34 38 37
f 35 36 40 39
f 33 36 40 37
f 34 35 39 38
f 41 42 43 44
f 45 46 47 48
f 41 42 46 45
f 43 44 48 47
f 41 44 48 45
f 42 43 47 46
f 49 50 51 52
f 53 54 55 56
f 49 50 54 53
f 51 52 56 55
f 49 52 56 53
f 50 51 55 54
f 57 58 59 60
f 61 62 63 64
f 57 58 62 61
f 59 60 64 63
f 57 60 64 61
f 58 59 63 62
f 65 66 67 68
f 69 70 71 72
f 65 66 70 69
f 67 68 72 71
f 65 68 72 69
f 66 67 71 70
